<?xml version="1.0" encoding="UTF-8" standalone="no"?>
<!-- Created with Inkscape (http://www.inkscape.org/) -->

<svg
   xmlns:dc="http://purl.org/dc/elements/1.1/"
   xmlns:cc="http://creativecommons.org/ns#"
   xmlns:rdf="http://www.w3.org/1999/02/22-rdf-syntax-ns#"
   xmlns:svg="http://www.w3.org/2000/svg"
   xmlns="http://www.w3.org/2000/svg"
   xmlns:sodipodi="http://sodipodi.sourceforge.net/DTD/sodipodi-0.dtd"
   xmlns:inkscape="http://www.inkscape.org/namespaces/inkscape"
   id="svg5564"
   sodipodi:docname="logo.svg"
   viewBox="0 0 199.02743 211.60283"
   sodipodi:version="0.32"
   version="1.0"
   inkscape:output_extension="org.inkscape.output.svg.inkscape"
   inkscape:version="0.92.5 (2060ec1f9f, 2020-04-08)"
   width="199.02742"
   height="211.60284"
   inkscape:export-filename="/home/marcus/proto/go/src/github.com/CmdrVasquess/gamcro/doc/logo.png"
   inkscape:export-xdpi="58.071053"
   inkscape:export-ydpi="58.071053">
  <defs
     id="defs116" />
  <sodipodi:namedview
     id="base"
     bordercolor="#666666"
     inkscape:pageshadow="2"
     inkscape:window-y="0"
     pagecolor="#ffffff"
     inkscape:window-height="1163"
     inkscape:zoom="1.979899"
     inkscape:window-x="1920"
     borderopacity="1.0"
     inkscape:current-layer="layer2"
     inkscape:cx="87.832185"
     inkscape:cy="76.906022"
     inkscape:window-width="1920"
     inkscape:pageopacity="0.0"
     inkscape:document-units="px"
     showgrid="false"
     inkscape:snap-global="false"
     fit-margin-top="0"
     fit-margin-left="0"
     fit-margin-right="0"
     fit-margin-bottom="0"
     inkscape:window-maximized="1"
     showguides="false" />
  <g
     inkscape:groupmode="layer"
     id="layer2"
     inkscape:label="Outeline"
     transform="translate(15.664198,-24.935382)">
    <g
       id="g1174">
      <path
         inkscape:connector-curvature="0"
         id="path3605-7"
         d="m 31.164062,102.52734 c -6.133744,0.94465 -10.73574,5.91822 -16.6875,7.57032 3.955502,0.89568 8.756308,-0.0125 12.427735,1.28125 8.422096,21.11653 5.871379,44.43849 12.189453,66.09375 4.094276,2.08645 9.764786,-0.49476 9.123047,-5.50586 -2.839454,-22.06283 -1.198625,-45.54688 -10.660156,-66.18946 -1.455594,-2.01252 -3.852701,-3.44566 -6.392579,-3.25 z"
         style="fill:#000000;fill-opacity:1" />
      <path
         inkscape:connector-curvature="0"
         id="path3607-5"
         d="m 107.08203,103.65234 c -25.276271,1.27414 -51.20035,-1.63432 -76.191405,2.88477 -4.816622,2.65102 -3.336953,12.03284 2.753906,11.4375 26.417328,4.33546 53.194396,0.43774 79.733119,0.66316 18.79984,-0.99082 37.72814,-1.2019 56.44462,-2.72175 4.48411,-0.21135 8.28545,-6.07992 4.625,-9.36133 -10.72921,-5.23596 -22.93769,-1.05182 -34.30227,-2.57469 -11.02054,-0.1456 -22.04092,-0.36355 -33.06297,-0.32766 z"
         style="fill:#000000;fill-opacity:1" />
      <path
         inkscape:connector-curvature="0"
         id="path5528-5"
         d="m 48.5,147.30664 c -5.154111,2.1187 -2.546483,9.38201 -1.440137,13.41455 3.409565,2.37046 4.745978,-1.86447 4.631543,-5.03174 -0.07487,-2.57504 0.521935,-8.11171 -3.191406,-8.38281 z"
         style="fill:#000000;fill-opacity:1;stroke-width:1.22920001" />
      <path
         inkscape:connector-curvature="0"
         id="path5530-6"
         d="m 57.300781,147.51953 c -3.122521,-0.55303 -2.276066,4.27278 -2.335937,6.72656 0.579318,3.16534 0.684485,8.50359 5.166015,6.94336 1.107055,-3.28764 2.840123,-13.17285 -2.830078,-13.66992 z"
         style="fill:#000000;fill-opacity:1;stroke-width:1.22920001" />
      <path
         inkscape:connector-curvature="0"
         id="path5532-2"
         d="m 52.289062,146.70898 c -3.081816,-0.69017 -9.084646,2.30736 -4.851562,5.37696 3.931742,2.03953 8.563614,0.21466 12.507812,-0.86133 1.102264,-5.26015 -4.190917,-4.08017 -7.65625,-4.51563 z"
         style="fill:#000000;fill-opacity:1;stroke-width:1.22920001" />
      <path
         inkscape:connector-curvature="0"
         id="path5534-9"
         d="m 54.369141,156.24023 c -3.713573,-0.43514 -9.258366,1.23344 -7.666016,6.1211 4.566699,0.45995 9.321673,0.35885 13.65625,-1.59571 1.255955,-4.47761 -2.858414,-4.1396 -5.990234,-4.52539 z"
         style="fill:#000000;fill-opacity:1;stroke-width:1.22920001" />
      <path
         inkscape:connector-curvature="0"
         id="path5538-2"
         d="m 63.957031,147.30664 c -5.164257,2.1063 -2.553322,9.37875 -1.45059,13.41085 3.401666,2.37834 4.754947,-1.85753 4.634184,-5.02608 -0.06827,-2.55553 0.513295,-8.1246 -3.183594,-8.38477 z"
         style="fill:#000000;fill-opacity:1;stroke-width:1.22920001" />
      <path
         inkscape:connector-curvature="0"
         id="path5540-7"
         d="m 72.75,147.51953 c -3.124161,-0.55677 -2.275571,4.27248 -2.333984,6.72266 0.575317,3.16527 0.68456,8.50649 5.164062,6.94726 1.1098,-3.28755 2.839799,-13.17364 -2.830078,-13.66992 z"
         style="fill:#000000;fill-opacity:1;stroke-width:1.22920001" />
      <path
         inkscape:connector-curvature="0"
         id="path5542-0"
         d="m 67.738281,146.70898 c -3.135506,-0.76185 -9.137193,2.44039 -4.771484,5.42774 3.932474,1.94652 8.500436,0.16729 12.421875,-0.91211 1.120042,-5.26355 -4.184958,-4.07816 -7.650391,-4.51563 z"
         style="fill:#000000;fill-opacity:1;stroke-width:1.22920001" />
      <path
         inkscape:connector-curvature="0"
         id="path5544-9"
         d="m 69.820312,156.24023 c -3.714379,-0.43544 -9.2596,1.23293 -7.666015,6.1211 4.565478,0.45982 9.320607,0.35923 13.654297,-1.59571 1.255641,-4.47705 -2.856677,-4.13927 -5.988282,-4.52539 z"
         style="fill:#000000;fill-opacity:1;stroke-width:1.22920001" />
      <path
         inkscape:connector-curvature="0"
         id="path5548-3"
         d="m 79.398438,147.14062 c -5.151149,2.11742 -2.525042,9.36071 -1.462773,13.39906 3.367233,2.39866 4.790573,-1.83401 4.654179,-5.01038 -0.02679,-2.55577 0.464467,-8.14046 -3.191406,-8.38868 z"
         style="fill:#000000;fill-opacity:1" />
      <path
         inkscape:connector-curvature="0"
         id="path5552-6"
         d="m 98.685547,146.58008 c -6.953459,0.24924 -13.948008,0.16782 -20.738281,1.23242 -3.568931,2.95446 2.048068,5.1407 4.719877,4.65771 16.75768,0.66133 33.594147,0.10986 50.348477,-0.60693 4.81605,1.16412 5.09943,-5.19111 0.51619,-4.78726 -11.60945,-0.41089 -23.22889,-0.62558 -34.846263,-0.49594 z"
         style="fill:#000000;fill-opacity:1" />
      <path
         inkscape:connector-curvature="0"
         id="path5580-0"
         d="m 134.55469,146.63281 c -3.12827,-0.55974 -2.26464,4.27352 -2.33594,6.72657 0.57238,3.17667 0.70192,8.50346 5.19141,6.96093 1.06738,-4.15552 2.71555,-11.2288 -2.04883,-13.59765 -0.26308,-0.0665 -0.53537,-0.0986 -0.80664,-0.0898 z"
         style="fill:#000000;fill-opacity:1" />
      <path
         inkscape:connector-curvature="0"
         id="path5588-2"
         d="m 141.2207,145.87305 c -5.15531,2.11646 -2.54509,9.37788 -1.44473,13.41085 3.40101,2.3787 4.7576,-1.85911 4.63419,-5.02804 -0.0723,-2.57298 0.52206,-8.11289 -3.18946,-8.38281 z"
         style="fill:#000000;fill-opacity:1;stroke-width:1.22920001" />
      <path
         inkscape:connector-curvature="0"
         id="path5590-6"
         d="m 150.01953,146.08594 c -3.12438,-0.55423 -2.27453,4.27378 -2.33398,6.72656 0.57946,3.16429 0.68383,8.50274 5.16406,6.94336 1.1099,-3.28494 2.84008,-13.17682 -2.83008,-13.66992 z"
         style="fill:#000000;fill-opacity:1;stroke-width:1.22920001" />
      <path
         inkscape:connector-curvature="0"
         id="path5592-1"
         d="m 145.00781,145.27539 c -2.8901,-0.49049 -8.81362,1.8367 -5.16797,5.17578 3.93067,2.37387 8.79558,0.42797 12.82618,-0.66015 1.10244,-5.26076 -4.19262,-4.08015 -7.65821,-4.51563 z"
         style="fill:#000000;fill-opacity:1;stroke-width:1.22920001" />
      <path
         inkscape:connector-curvature="0"
         id="path5594-8"
         d="m 147.08984,154.80664 c -3.71578,-0.43629 -9.25936,1.23411 -7.66601,6.12305 4.56491,0.45718 9.31893,0.35351 13.65429,-1.59571 1.25701,-4.48318 -2.85374,-4.14121 -5.98828,-4.52734 z"
         style="fill:#000000;fill-opacity:1;stroke-width:1.22920001" />
      <path
         inkscape:connector-curvature="0"
         id="path5598-9"
         d="m 156.72852,144.8457 c -4.92877,1.77647 -2.83026,8.66084 -1.78711,12.45899 2.2465,4.19148 5.5191,-0.53635 4.91601,-4.03321 -0.0518,-2.53269 0.50926,-8.11019 -3.1289,-8.42578 z"
         style="fill:#000000;fill-opacity:1;stroke-width:1.22920001" />
      <path
         inkscape:connector-curvature="0"
         id="path5600-2"
         d="m 165.44922,145.06055 c -3.09065,-0.49847 -2.25832,4.27871 -2.31445,6.72461 0.58014,3.1671 0.6838,8.5211 5.16796,6.9375 1.11488,-3.30151 2.83054,-13.20093 -2.85351,-13.66211 z"
         style="fill:#000000;fill-opacity:1;stroke-width:1.22920001" />
      <path
         inkscape:connector-curvature="0"
         id="path5602-0"
         d="m 160.45898,144.25195 c -2.89031,-0.49159 -8.82008,1.83986 -5.16601,5.17578 3.92853,2.3726 8.79691,0.43268 12.82226,-0.66796 1.09888,-5.25248 -4.19574,-4.07241 -7.65625,-4.50782 z"
         style="fill:#000000;fill-opacity:1;stroke-width:1.22920001" />
      <path
         inkscape:connector-curvature="0"
         id="path5604-2"
         d="m 162.53906,153.7832 c -3.70632,-0.43669 -9.28263,1.23523 -7.64258,6.12305 4.55783,0.45579 9.30561,0.35347 13.63282,-1.59961 1.25631,-4.47938 -2.85637,-4.13952 -5.99024,-4.52344 z"
         style="fill:#000000;fill-opacity:1;stroke-width:1.22920001" />
      <path
         inkscape:connector-curvature="0"
         id="path5662-3"
         d="m 110.95898,155.79688 c -10.70681,0.10977 -21.407297,0.51246 -32.101558,1.02734 -2.626894,3.97949 0.444571,4.7301 3.873047,4.74219 16.824259,0.29141 33.731011,0.91836 50.525391,-0.22852 2.96975,0.71898 7.10246,-3.12762 3.0918,-4.79297 -8.38217,-0.65326 -16.88347,-0.90216 -25.38868,-0.74804 z"
         style="fill:#000000;fill-opacity:1" />
      <path
         inkscape:connector-curvature="0"
         id="path3609-7"
         d="m 170.60156,105.34766 c -7.34651,2.77235 -8.36375,11.58611 -6.94336,18.32422 1.0564,16.14542 3.03761,32.80817 10.85547,47.26757 4.03577,1.57572 8.69122,-1.61556 7.75977,-6.07617 -1.79204,-17.29766 -7.11958,-34.41717 -4.73047,-51.8418 -0.39913,-3.59095 -4.46994,-5.2426 -4.88477,-8.87109 -0.68554,0.39909 -1.37109,0.79818 -2.05664,1.19727 z"
         style="fill:#000000;fill-opacity:1" />
      <path
         inkscape:connector-curvature="0"
         id="path3611-5"
         d="m 105.1875,162.54883 c -19.288916,0.63247 -38.959019,-0.58716 -57.955078,3.22656 -4.720721,1.79688 -7.058343,7.79194 -4.53125,12.25195 14.406701,2.17129 28.786081,-1.15499 43.196834,-0.91024 31.360724,-0.86901 62.971944,-0.29142 94.174264,-2.41398 5.4247,-1.78714 3.77169,-11.11928 -2.24415,-9.98242 -24.11335,-2.49553 -48.42072,-2.24318 -72.64062,-2.17187 z"
         style="fill:#000000;fill-opacity:1" />
      <path
         inkscape:connector-curvature="0"
         id="path3613-2"
         d="m 43.580078,117.76758 c -5.15472,2.11869 -2.546435,9.3818 -1.440137,13.41455 3.408014,2.37024 4.748768,-1.86401 4.62959,-5.03174 -0.07038,-2.5735 0.521347,-8.11204 -3.189453,-8.38281 z"
         style="fill:#000000;fill-opacity:1;stroke-width:1.22920001" />
      <path
         inkscape:connector-curvature="0"
         id="path3615-2"
         d="m 52.380859,117.98047 c -3.124079,-0.55353 -2.275419,4.27292 -2.335937,6.72656 0.57957,3.16532 0.684727,8.5034 5.166016,6.94336 1.107197,-3.28766 2.840032,-13.17287 -2.830079,-13.66992 z"
         style="fill:#000000;fill-opacity:1;stroke-width:1.22920001" />
      <path
         inkscape:connector-curvature="0"
         id="path3626-8"
         d="m 47.369141,117.16992 c -3.081816,-0.69017 -9.084647,2.30736 -4.851563,5.37696 3.931595,2.03987 8.563676,0.21443 12.507813,-0.86133 1.102605,-5.26236 -4.188515,-4.07859 -7.65625,-4.51563 z"
         style="fill:#000000;fill-opacity:1;stroke-width:1.22920001" />
      <path
         inkscape:connector-curvature="0"
         id="path3636-9"
         d="m 49.449219,126.70117 c -3.713255,-0.43455 -9.258857,1.23338 -7.666016,6.1211 4.566699,0.45994 9.321674,0.35884 13.65625,-1.59571 1.256177,-4.47949 -2.858225,-4.13717 -5.990234,-4.52539 z"
         style="fill:#000000;fill-opacity:1;stroke-width:1.22920001" />
      <path
         inkscape:connector-curvature="0"
         id="path5168-3"
         d="m 59.046875,117.76758 c -5.164257,2.1063 -2.553322,9.37874 -1.450591,13.41085 3.401667,2.37834 4.754948,-1.85754 4.634185,-5.02609 -0.06827,-2.55552 0.513295,-8.1246 -3.183594,-8.38476 z"
         style="fill:#000000;fill-opacity:1;stroke-width:1.22920001" />
      <path
         inkscape:connector-curvature="0"
         id="path5170-6"
         d="m 67.839844,117.98047 c -3.124849,-0.55651 -2.274902,4.27202 -2.333985,6.72265 0.577562,3.16478 0.683841,8.50669 5.164063,6.94727 1.109946,-3.28757 2.839705,-13.17366 -2.830078,-13.66992 z"
         style="fill:#000000;fill-opacity:1;stroke-width:1.22920001" />
      <path
         inkscape:connector-curvature="0"
         id="path5172-1"
         d="m 62.828125,117.16992 c -3.136338,-0.76292 -9.134825,2.44087 -4.771484,5.42774 3.935143,1.9482 8.504845,0.16359 12.429687,-0.91211 1.10281,-5.26289 -4.190299,-4.07852 -7.658203,-4.51563 z"
         style="fill:#000000;fill-opacity:1;stroke-width:1.22920001" />
      <path
         inkscape:connector-curvature="0"
         id="path5174-2"
         d="m 64.910156,126.70117 c -3.71414,-0.43496 -9.259818,1.23294 -7.666015,6.1211 4.56549,0.45982 9.320599,0.35926 13.654297,-1.59571 1.255814,-4.47872 -2.856395,-4.13726 -5.988282,-4.52539 z"
         style="fill:#000000;fill-opacity:1;stroke-width:1.22920001" />
      <path
         inkscape:connector-curvature="0"
         id="path5178-3"
         d="m 74.548828,117.58594 c -4.931196,1.77553 -2.829498,8.66083 -1.787109,12.45898 2.245743,4.19199 5.52253,-0.53754 4.914062,-4.03515 -0.05195,-2.5336 0.511359,-8.10763 -3.126953,-8.42383 z"
         style="fill:#000000;fill-opacity:1;stroke-width:1.22920001" />
      <path
         inkscape:connector-curvature="0"
         id="path5180-1"
         d="m 83.289062,117.80078 c -3.118038,-0.55185 -2.275285,4.27245 -2.333984,6.72461 0.581357,3.16751 0.683101,8.5219 5.167969,6.9375 1.11095,-3.29575 2.829955,-13.16921 -2.833985,-13.66211 z"
         style="fill:#000000;fill-opacity:1;stroke-width:1.22920001" />
      <path
         inkscape:connector-curvature="0"
         id="path5182-9"
         d="m 78.277344,116.99023 c -2.891426,-0.4914 -8.816696,1.84555 -5.164063,5.17774 3.928927,2.37304 8.794674,0.42918 12.822266,-0.66406 1.100564,-5.25531 -4.194759,-4.07879 -7.658203,-4.51368 z"
         style="fill:#000000;fill-opacity:1;stroke-width:1.22920001" />
      <path
         inkscape:connector-curvature="0"
         id="path5184-4"
         d="m 80.359375,126.52344 c -3.715927,-0.43701 -9.260008,1.23393 -7.666016,6.12304 4.565991,0.4531 9.321696,0.35837 13.65625,-1.5996 1.256347,-4.47951 -2.85639,-4.1393 -5.990234,-4.52344 z"
         style="fill:#000000;fill-opacity:1;stroke-width:1.22920001" />
      <path
         inkscape:connector-curvature="0"
         id="path5188-8"
         d="m 89.947266,117.41016 c -5.163505,2.10378 -2.554089,9.37744 -1.450704,13.40893 3.410432,2.37775 4.750267,-1.85429 4.634297,-5.02417 -0.0731,-2.57291 0.52108,-8.1061 -3.183593,-8.38476 z"
         style="fill:#000000;fill-opacity:1;stroke-width:1.22920001" />
      <path
         inkscape:connector-curvature="0"
         id="path5190-4"
         d="m 98.740234,117.62305 c -3.124618,-0.55439 -2.273604,4.27399 -2.335937,6.72656 0.578743,3.1647 0.687334,8.50212 5.166013,6.94336 1.10881,-3.28712 2.84018,-13.1743 -2.830076,-13.66992 z"
         style="fill:#000000;fill-opacity:1;stroke-width:1.22920001" />
      <path
         inkscape:connector-curvature="0"
         id="path5192-5"
         d="m 93.728516,116.8125 c -2.886291,-0.48628 -8.817822,1.83089 -5.169922,5.17383 3.928951,2.37697 8.796959,0.43138 12.826176,-0.66016 1.10138,-5.25812 -4.192048,-4.07856 -7.656254,-4.51367 z"
         style="fill:#000000;fill-opacity:1;stroke-width:1.22920001" />
      <path
         inkscape:connector-curvature="0"
         id="path5194-0"
         d="m 95.810547,126.34375 c -3.715803,-0.43628 -9.260214,1.23385 -7.666016,6.12305 4.564892,0.45556 9.317631,0.35318 13.654299,-1.59375 1.25743,-4.48534 -2.851238,-4.14313 -5.988283,-4.5293 z"
         style="fill:#000000;fill-opacity:1;stroke-width:1.22920001" />
      <path
         inkscape:connector-curvature="0"
         id="path5198-6"
         d="m 105.45898,117.22852 c -4.93109,1.77468 -2.82755,8.65621 -1.79101,12.45507 2.22842,4.20091 5.53188,-0.5347 4.91797,-4.03125 -0.0512,-2.5319 0.51004,-8.11064 -3.12696,-8.42382 z"
         style="fill:#000000;fill-opacity:1;stroke-width:1.22920001" />
      <path
         inkscape:connector-curvature="0"
         id="path5200-1"
         d="m 114.19922,117.44336 c -3.11698,-0.55044 -2.27713,4.27378 -2.33399,6.72461 0.57925,3.1635 0.68291,8.50387 5.16211,6.94531 1.12324,-3.30324 2.82953,-13.18683 -2.82812,-13.66992 z"
         style="fill:#000000;fill-opacity:1;stroke-width:1.22920001" />
      <path
         inkscape:connector-curvature="0"
         id="path5202-0"
         d="m 109.1875,116.63281 c -3.08136,-0.68816 -9.08259,2.30718 -4.84961,5.37696 3.93167,2.03975 8.56363,0.21451 12.50781,-0.86133 1.10279,-5.26291 -4.19027,-4.07864 -7.6582,-4.51563 z"
         style="fill:#000000;fill-opacity:1;stroke-width:1.22920001" />
      <path
         inkscape:connector-curvature="0"
         id="path5204-6"
         d="m 111.26953,126.16406 c -3.71516,-0.4338 -9.2613,1.23471 -7.66601,6.125 4.56516,0.45194 9.32048,0.35688 13.65429,-1.59961 1.25594,-4.48019 -2.85564,-4.13628 -5.98828,-4.52539 z"
         style="fill:#000000;fill-opacity:1;stroke-width:1.22920001" />
      <path
         inkscape:connector-curvature="0"
         id="path5208-2"
         d="m 120.91406,116.86914 c -4.93626,1.76679 -2.83565,8.65775 -1.79492,12.45508 2.23069,4.19933 5.52528,-0.53087 4.91797,-4.02734 -0.0522,-2.53434 0.5098,-8.10363 -3.12305,-8.42774 z"
         style="fill:#000000;fill-opacity:1;stroke-width:1.22920001" />
      <path
         inkscape:connector-curvature="0"
         id="path5210-0"
         d="m 129.65039,117.08398 c -3.12586,-0.55596 -2.27324,4.27302 -2.33594,6.72461 0.5801,3.16709 0.68387,8.50622 5.16602,6.94532 1.11503,-3.29855 2.83182,-13.17976 -2.83008,-13.66993 z"
         style="fill:#000000;fill-opacity:1;stroke-width:1.22920001" />
      <path
         inkscape:connector-curvature="0"
         id="path5212-6"
         d="m 124.63867,116.27344 c -2.88995,-0.48737 -8.81995,1.83787 -5.16601,5.17773 3.92944,2.37225 8.79452,0.4297 12.82226,-0.66406 1.10164,-5.26131 -4.18946,-4.07589 -7.65625,-4.51367 z"
         style="fill:#000000;fill-opacity:1;stroke-width:1.22920001" />
      <path
         inkscape:connector-curvature="0"
         id="path5214-1"
         d="m 126.7168,125.80469 c -3.71603,-0.43291 -9.25576,1.23673 -7.66211,6.125 4.56502,0.45263 9.32062,0.35813 13.65429,-1.59961 1.2566,-4.48271 -2.85792,-4.13611 -5.99218,-4.52539 z"
         style="fill:#000000;fill-opacity:1;stroke-width:1.22920001" />
      <path
         inkscape:connector-curvature="0"
         id="path5218-5"
         d="m 136.30078,116.33398 c -5.15504,2.11676 -2.54772,9.37773 -1.44473,13.41085 3.401,2.37871 4.75759,-1.8591 4.63418,-5.02803 -0.0724,-2.57405 0.52226,-8.11196 -3.18945,-8.38282 z"
         style="fill:#000000;fill-opacity:1;stroke-width:1.22920001" />
      <path
         inkscape:connector-curvature="0"
         id="path5220-4"
         d="m 145.09961,116.54688 c -3.12357,-0.55502 -2.27476,4.27079 -2.33399,6.72265 0.57732,3.16479 0.6836,8.50686 5.16407,6.94727 1.11004,-3.28532 2.83991,-13.17644 -2.83008,-13.66992 z"
         style="fill:#000000;fill-opacity:1;stroke-width:1.22920001" />
      <path
         inkscape:connector-curvature="0"
         id="path5222-7"
         d="m 140.08789,115.73633 c -2.88996,-0.48999 -8.8139,1.83655 -5.16797,5.17578 3.93073,2.3736 8.79571,0.42901 12.82617,-0.66016 1.10258,-5.26182 -4.19138,-4.07948 -7.6582,-4.51562 z"
         style="fill:#000000;fill-opacity:1;stroke-width:1.22920001" />
      <path
         inkscape:connector-curvature="0"
         id="path5224-6"
         d="m 142.16992,125.26758 c -3.71579,-0.43626 -9.25936,1.23408 -7.66601,6.12304 4.56484,0.45704 9.31905,0.35398 13.65429,-1.5957 1.25701,-4.48318 -2.85375,-4.14121 -5.98828,-4.52734 z"
         style="fill:#000000;fill-opacity:1;stroke-width:1.22920001" />
      <path
         inkscape:connector-curvature="0"
         id="path5228-6"
         d="m 151.80859,115.30664 c -4.92938,1.77614 -2.8299,8.66101 -1.78711,12.45898 2.24651,4.19148 5.51911,-0.53635 4.91602,-4.0332 -0.0547,-2.5336 0.51091,-8.10968 -3.12891,-8.42578 z"
         style="fill:#000000;fill-opacity:1;stroke-width:1.22920001" />
      <path
         inkscape:connector-curvature="0"
         id="path5230-9"
         d="m 160.5293,115.52148 c -3.08978,-0.49771 -2.25891,4.27833 -2.31446,6.72461 0.58015,3.1671 0.68381,8.5211 5.16797,6.9375 1.11517,-3.30119 2.82988,-13.20108 -2.85351,-13.66211 z"
         style="fill:#000000;fill-opacity:1;stroke-width:1.22920001" />
      <path
         inkscape:connector-curvature="0"
         id="path5232-3"
         d="m 155.53906,114.71289 c -2.89011,-0.49291 -8.82058,1.8421 -5.16601,5.17578 3.92807,2.37397 8.79695,0.43182 12.82226,-0.66797 1.09888,-5.25248 -4.19574,-4.0724 -7.65625,-4.50781 z"
         style="fill:#000000;fill-opacity:1;stroke-width:1.22920001" />
      <path
         inkscape:connector-curvature="0"
         id="path5234-7"
         d="m 157.61914,124.24414 c -3.71552,-0.43613 -9.25937,1.23379 -7.66602,6.12305 4.56586,0.45334 9.32163,0.35824 13.65626,-1.59961 1.25636,-4.48137 -2.85679,-4.13733 -5.99024,-4.52344 z"
         style="fill:#000000;fill-opacity:1;stroke-width:1.22920001" />
      <path
         inkscape:connector-curvature="0"
         id="path5282-5"
         d="m 46.103516,132.51562 c -4.93632,1.76725 -2.834869,8.65733 -1.794922,12.45508 2.235627,4.19862 5.52702,-0.53064 4.917968,-4.02929 -0.06922,-2.57885 0.53693,-8.05304 -3.123046,-8.42579 z"
         style="fill:#000000;fill-opacity:1;stroke-width:1.22920001" />
      <path
         inkscape:connector-curvature="0"
         id="path5284-2"
         d="m 54.818359,132.73047 c -3.09289,-0.50034 -2.257596,4.27852 -2.3125,6.72265 0.578496,3.16618 0.683572,8.52236 5.166016,6.93946 1.117038,-3.30077 2.83045,-13.20203 -2.853516,-13.66211 z"
         style="fill:#000000;fill-opacity:1;stroke-width:1.22920001" />
      <path
         inkscape:connector-curvature="0"
         id="path5286-5"
         d="m 49.828125,131.92188 c -2.888811,-0.49019 -8.811801,1.83431 -5.169922,5.17382 3.929902,2.37643 8.799544,0.43244 12.828125,-0.66406 1.100049,-5.25588 -4.195029,-4.07383 -7.658203,-4.50976 z"
         style="fill:#000000;fill-opacity:1;stroke-width:1.22920001" />
      <path
         inkscape:connector-curvature="0"
         id="path5288-4"
         d="m 51.910156,141.45312 c -3.716667,-0.43612 -9.260074,1.23319 -7.666015,6.12305 4.564888,0.4528 9.320692,0.35921 13.654297,-1.59961 1.256064,-4.48026 -2.856214,-4.13695 -5.988282,-4.52344 z"
         style="fill:#000000;fill-opacity:1;stroke-width:1.22920001" />
      <path
         inkscape:connector-curvature="0"
         id="path5292-4"
         d="m 61.548828,132.51562 c -4.930419,1.77594 -2.829832,8.66071 -1.787109,12.45899 2.246727,4.19282 5.522827,-0.53936 4.914062,-4.03711 -0.05139,-2.53073 0.510079,-8.10678 -3.126953,-8.42188 z"
         style="fill:#000000;fill-opacity:1;stroke-width:1.22920001" />
      <path
         inkscape:connector-curvature="0"
         id="path5294-4"
         d="m 70.265625,132.73047 c -3.085428,-0.49499 -2.255733,4.28028 -2.310547,6.72461 0.580148,3.1671 0.683808,8.5211 5.167969,6.9375 1.113041,-3.29696 2.833089,-13.20417 -2.857422,-13.66211 z"
         style="fill:#000000;fill-opacity:1;stroke-width:1.22920001" />
      <path
         inkscape:connector-curvature="0"
         id="path5296-3"
         d="m 65.277344,131.92188 c -2.890284,-0.49238 -8.818974,1.84314 -5.164063,5.17578 3.928051,2.37435 8.796001,0.43032 12.822266,-0.66602 1.099919,-5.25476 -4.196322,-4.07457 -7.658203,-4.50976 z"
         style="fill:#000000;fill-opacity:1;stroke-width:1.22920001" />
      <path
         inkscape:connector-curvature="0"
         id="path5298-0"
         d="m 67.359375,141.45312 c -3.715795,-0.43599 -9.26008,1.23339 -7.666016,6.12305 4.565991,0.4531 9.321696,0.35837 13.65625,-1.59961 1.256399,-4.48201 -2.856771,-4.13651 -5.990234,-4.52344 z"
         style="fill:#000000;fill-opacity:1;stroke-width:1.22920001" />
      <path
         inkscape:connector-curvature="0"
         id="path5302-8"
         d="m 76.957031,132.33984 c -5.164662,2.10557 -2.553009,9.37909 -1.45059,13.41085 3.401439,2.37829 4.755566,-1.8574 4.634184,-5.02608 -0.06827,-2.55553 0.513295,-8.1246 -3.183594,-8.38477 z"
         style="fill:#000000;fill-opacity:1;stroke-width:1.22920001" />
      <path
         inkscape:connector-curvature="0"
         id="path5304-6"
         d="m 85.75,132.55273 c -3.124161,-0.55677 -2.275571,4.27248 -2.333984,6.72266 0.575317,3.16527 0.68456,8.50649 5.164062,6.94727 1.109595,-3.28756 2.840105,-13.17383 -2.830078,-13.66993 z"
         style="fill:#000000;fill-opacity:1;stroke-width:1.22920001" />
      <path
         inkscape:connector-curvature="0"
         id="path5306-8"
         d="m 80.738281,131.74219 c -2.892288,-0.4908 -8.815817,1.83904 -5.166015,5.17969 3.930475,2.36682 8.789138,0.42908 12.816406,-0.66407 1.120042,-5.26355 -4.184958,-4.07815 -7.650391,-4.51562 z"
         style="fill:#000000;fill-opacity:1;stroke-width:1.22920001" />
      <path
         inkscape:connector-curvature="0"
         id="path5308-8"
         d="m 82.820312,141.27344 c -3.715502,-0.4362 -9.260434,1.23412 -7.666015,6.12304 4.564731,0.45704 9.319089,0.35397 13.654297,-1.5957 1.257007,-4.48388 -2.852516,-4.14106 -5.988282,-4.52734 z"
         style="fill:#000000;fill-opacity:1;stroke-width:1.22920001" />
      <path
         inkscape:connector-curvature="0"
         id="path5312-3"
         d="m 92.458984,132.1582 c -4.930865,1.77479 -2.828026,8.65624 -1.791015,12.45508 2.228425,4.20091 5.531885,-0.5347 4.917969,-4.03125 -0.05121,-2.53275 0.509624,-8.10868 -3.126954,-8.42383 z"
         style="fill:#000000;fill-opacity:1;stroke-width:1.22920001" />
      <path
         inkscape:connector-curvature="0"
         id="path5314-1"
         d="m 101.19922,132.37305 c -3.116851,-0.5504 -2.277204,4.27363 -2.333986,6.72461 0.579243,3.1635 0.682903,8.50386 5.162106,6.94531 1.11724,-3.29358 2.83789,-13.17771 -2.82812,-13.66992 z"
         style="fill:#000000;fill-opacity:1;stroke-width:1.22920001" />
      <path
         inkscape:connector-curvature="0"
         id="path5316-4"
         d="m 96.1875,131.5625 c -2.891044,-0.4905 -8.816646,1.84374 -5.164062,5.17773 3.929,2.37351 8.793739,0.42763 12.822262,-0.66211 1.10264,-5.26378 -4.189966,-4.07781 -7.6582,-4.51562 z"
         style="fill:#000000;fill-opacity:1;stroke-width:1.22920001" />
      <path
         inkscape:connector-curvature="0"
         id="path5318-9"
         d="m 98.265625,141.09375 c -3.715174,-0.43231 -9.255781,1.23669 -7.662109,6.125 4.56522,0.45209 9.320855,0.35905 13.654294,-1.59961 1.25659,-4.48109 -2.85912,-4.13714 -5.992185,-4.52539 z"
         style="fill:#000000;fill-opacity:1;stroke-width:1.22920001" />
      <path
         inkscape:connector-curvature="0"
         id="path5322-0"
         d="m 107.91406,131.97852 c -4.93731,1.76675 -2.83389,8.65741 -1.79492,12.45507 2.23069,4.19934 5.52528,-0.53087 4.91797,-4.02734 -0.0521,-2.53344 0.51047,-8.10464 -3.12305,-8.42773 z"
         style="fill:#000000;fill-opacity:1;stroke-width:1.22920001" />
      <path
         inkscape:connector-curvature="0"
         id="path5324-6"
         d="m 116.65039,132.19336 c -3.12592,-0.55594 -2.27321,4.27309 -2.33594,6.72461 0.5801,3.16709 0.68387,8.50621 5.16602,6.94531 1.12215,-3.31053 2.82194,-13.18945 -2.83008,-13.66992 z"
         style="fill:#000000;fill-opacity:1;stroke-width:1.22920001" />
      <path
         inkscape:connector-curvature="0"
         id="path5326-8"
         d="m 111.63867,131.38281 c -3.07987,-0.68547 -9.08639,2.30178 -4.85156,5.37696 3.9321,2.03855 8.56441,0.21655 12.50781,-0.86329 1.1018,-5.26042 -4.18976,-4.07671 -7.65625,-4.51367 z"
         style="fill:#000000;fill-opacity:1;stroke-width:1.22920001" />
      <path
         inkscape:connector-curvature="0"
         id="path5328-9"
         d="m 113.7207,140.91406 c -3.71605,-0.43456 -9.26183,1.23451 -7.66601,6.125 4.56506,0.45232 9.32032,0.35633 13.65429,-1.59961 1.25595,-4.48181 -2.85444,-4.13525 -5.98828,-4.52539 z"
         style="fill:#000000;fill-opacity:1;stroke-width:1.22920001" />
      <path
         inkscape:connector-curvature="0"
         id="path5332-6"
         d="m 123.31055,131.62305 c -5.15532,2.11646 -2.5451,9.37788 -1.44473,13.41085 3.401,2.3787 4.75759,-1.85911 4.63418,-5.02804 -0.072,-2.57373 0.52195,-8.1123 -3.18945,-8.38281 z"
         style="fill:#000000;fill-opacity:1;stroke-width:1.22920001" />
      <path
         inkscape:connector-curvature="0"
         id="path5334-6"
         d="m 132.10938,131.83594 c -3.12438,-0.55423 -2.27453,4.27378 -2.33399,6.72656 0.57947,3.16429 0.68384,8.50274 5.16406,6.94336 1.10755,-3.28113 2.84335,-13.17437 -2.83007,-13.66992 z"
         style="fill:#000000;fill-opacity:1;stroke-width:1.22920001" />
      <path
         inkscape:connector-curvature="0"
         id="path5336-4"
         d="m 127.09766,131.02539 c -2.89029,-0.49222 -8.81841,1.84173 -5.16407,5.17578 3.92787,2.37577 8.79344,0.42609 12.82227,-0.66015 1.10245,-5.26071 -4.19267,-4.08023 -7.6582,-4.51563 z"
         style="fill:#000000;fill-opacity:1;stroke-width:1.22920001" />
      <path
         inkscape:connector-curvature="0"
         id="path5338-9"
         d="m 129.17969,140.55664 c -3.71555,-0.43616 -9.25946,1.23407 -7.66602,6.12305 4.56491,0.45718 9.31893,0.35351 13.6543,-1.59571 1.25701,-4.48318 -2.85375,-4.14121 -5.98828,-4.52734 z"
         style="fill:#000000;fill-opacity:1;stroke-width:1.22920001" />
      <path
         inkscape:connector-curvature="0"
         id="path5342-0"
         d="m 138.81836,131.08203 c -4.92887,1.77571 -2.82926,8.65736 -1.78906,12.45508 2.23069,4.19933 5.52527,-0.53087 4.91797,-4.02734 -0.0527,-2.53475 0.51072,-8.11156 -3.12891,-8.42774 z"
         style="fill:#000000;fill-opacity:1;stroke-width:1.22920001" />
      <path
         inkscape:connector-curvature="0"
         id="path5344-4"
         d="m 147.56055,131.29688 c -3.12441,-0.55495 -2.27348,4.27246 -2.33594,6.7246 0.58136,3.16752 0.6831,8.52191 5.16797,6.9375 1.11284,-3.29866 2.8275,-13.17232 -2.83203,-13.6621 z"
         style="fill:#000000;fill-opacity:1;stroke-width:1.22920001" />
      <path
         inkscape:connector-curvature="0"
         id="path5346-8"
         d="m 142.54883,130.48633 c -2.89156,-0.49071 -8.81841,1.84204 -5.16602,5.17773 3.9294,2.37228 8.79454,0.42968 12.82227,-0.66406 1.10161,-5.26137 -4.18941,-4.0758 -7.65625,-4.51367 z"
         style="fill:#000000;fill-opacity:1;stroke-width:1.22920001" />
      <path
         inkscape:connector-curvature="0"
         id="path5348-7"
         d="m 144.625,140.01758 c -3.71572,-0.43302 -9.25445,1.23765 -7.66016,6.125 4.56496,0.45343 9.32036,0.35787 13.6543,-1.59961 1.25696,-4.48314 -2.85981,-4.13662 -5.99414,-4.52539 z"
         style="fill:#000000;fill-opacity:1;stroke-width:1.22920001" />
      <path
         inkscape:connector-curvature="0"
         id="path5352-7"
         d="m 154.2168,130.06055 c -5.16382,2.10682 -2.55364,9.37856 -1.45059,13.41085 3.40166,2.37833 4.75494,-1.85754 4.63418,-5.02609 -0.0683,-2.55552 0.5133,-8.1246 -3.18359,-8.38476 z"
         style="fill:#000000;fill-opacity:1;stroke-width:1.22920001" />
      <path
         inkscape:connector-curvature="0"
         id="path5354-2"
         d="m 163.00977,130.27344 c -3.1254,-0.55629 -2.27417,4.2715 -2.33399,6.72265 0.57756,3.16478 0.68384,8.50669 5.16406,6.94727 1.12361,-3.31044 2.82157,-13.18924 -2.83007,-13.66992 z"
         style="fill:#000000;fill-opacity:1;stroke-width:1.22920001" />
      <path
         inkscape:connector-curvature="0"
         id="path5356-7"
         d="m 157.99805,129.46289 c -3.08829,-0.69539 -9.08725,2.32038 -4.8418,5.38086 3.93066,2.03374 8.55798,0.20872 12.5,-0.86523 1.10281,-5.2629 -4.1903,-4.07853 -7.6582,-4.51563 z"
         style="fill:#000000;fill-opacity:1;stroke-width:1.22920001" />
      <path
         inkscape:connector-curvature="0"
         id="path5358-2"
         d="m 160.08008,138.99414 c -3.71419,-0.43483 -9.2598,1.23285 -7.66602,6.12109 4.56551,0.45983 9.32058,0.3593 13.6543,-1.5957 1.25595,-4.48033 -2.85556,-4.13608 -5.98828,-4.52539 z"
         style="fill:#000000;fill-opacity:1;stroke-width:1.22920001" />
      <path
         inkscape:connector-curvature="0"
         id="path4630-2"
         d="M 101.5,24.955078 C 58.935583,25.216997 15.038599,48.408469 -2.7508783,88.245285 -16.189268,117.26943 -19.740278,151.43671 -10.549116,182.2176 c 8.8144112,26.89554 32.931503,48.20268 61.12766,52.32428 23.354024,3.94331 48.003092,2.11691 70.259346,-6.12196 24.10798,-9.67879 44.35185,-29.32725 54.16602,-53.34765 1.56009,-5.01478 -5.33545,-8.08711 -8.44141,-4.00782 -5.17468,5.3039 -7.32464,12.79567 -12.56055,18.13477 -18.44061,23.28017 -48.55884,34.50043 -77.568333,33.78421 C 54.344899,223.61908 29.993894,216.67421 17.076172,197.50195 1.5287399,174.99061 2.3298854,145.90504 7.7433287,120.35394 17.066413,79.412977 51.885426,43.30068 94.734375,38.78125 c 21.035955,-2.388714 44.141885,4.234282 57.290075,22.027981 4.94815,5.646176 6.96395,13.849941 12.76071,18.485691 5.98953,2.031857 8.33817,-7.19081 4.38672,-10.546875 C 158.42083,45.515151 136.00238,26.098363 109.5574,25.151021 106.87748,24.944826 104.18661,24.904555 101.5,24.955078 Z"
         style="fill:#000000;fill-opacity:1;stroke:none;stroke-width:1px;stroke-linecap:butt;stroke-linejoin:round;stroke-opacity:1" />
    </g>
  </g>
  <g
     id="layer1"
     inkscape:label="Basic"
     inkscape:groupmode="layer"
     transform="translate(-317.10112,-405.52314)"
     style="display:inline">
    <g
       id="g236"
       transform="translate(-11.639675,28.935095)">
      <g
         style="fill:#f0b80f;fill-opacity:1"
         id="g5680">
        <path
           inkscape:connector-curvature="0"
           d="m 373.48,458.84 c 4.89,-2.48 6.17,2.44 7.48,6.05 5.41,18.14 5.38,36.54 7.3,54.83 0.31,3.83 0.23,1.97 0.26,5.59 l -1.91,0.08 c -1.02,-3.58 -0.56,-1.73 -1.34,-5.55 -3.06,-18.15 -3.2,-36.47 -8.62,-54.47 -0.89,-1.82 -3.67,-6.8 -1.77,-6.53 z"
           style="fill:#f0b80f;fill-opacity:1"
           id="path3605" />
        <path
           inkscape:connector-curvature="0"
           d="m 376.8,465.31 c 18.34,3.83 37.29,1.97 55.84,1.51 25.34,0.13 50.63,-2.07 75.96,-2.6 2.69,0.41 4.95,-0.67 7.39,-1.62 l -0.01,-1.24 c -2.47,-0.97 -4.73,-2.09 -7.47,-1.62 -25.34,0.27 -50.69,-1.08 -76.03,-0.04 -18.52,0.21 -37.41,-1.25 -55.71,2.41 z"
           style="fill:#f0b80f;fill-opacity:1"
           id="path3607" />
        <g
           style="fill:#f0b80f;fill-opacity:1"
           transform="matrix(1.2292,0,0,1.2292,635.82,85.473)"
           id="g5526">
          <path
             inkscape:connector-curvature="0"
             d="m -197.5,339 c -0.43,-0.39 0.72,-0.25 0.79,1.12 0.25,2 0.03,3.95 -0.35,5.91 l -0.41,0.02 c -0.6,-1.92 -1.03,-3.85 -0.98,-5.88 0.04,-1.32 1.05,-3.2 1.37,-1.46 z"
             style="fill:#f0b80f;fill-opacity:1"
             id="path5528" />
          <path
             inkscape:connector-curvature="0"
             d="m -190.55,338.19 c 1.57,-0.14 1.59,2.55 1.69,4.72 0,1.12 -0.31,2.15 -0.57,3.18 l -0.32,0.01 c -0.31,-0.98 -0.66,-1.95 -0.83,-2.99 -0.22,-1.77 -0.53,-3.41 0.06,-3.95 z"
             style="fill:#f0b80f;fill-opacity:1"
             id="path5530" />
          <path
             inkscape:connector-curvature="0"
             d="m -197.09,338.42 c -0.39,0.43 -0.25,-0.72 1.13,-0.79 2,-0.25 3.95,-0.03 5.9,0.36 l 0.03,0.4 c -1.92,0.6 -3.85,1.03 -5.88,0.98 -1.32,-0.04 -3.2,-1.05 -1.46,-1.37 z"
             style="fill:#f0b80f;fill-opacity:1"
             id="path5532" />
          <path
             inkscape:connector-curvature="0"
             d="m -197.51,346.96 c -0.14,-1.57 2.55,-1.59 4.73,-1.68 1.11,0 2.14,0.3 3.18,0.56 v 0.32 c -0.97,0.32 -1.95,0.66 -2.99,0.84 -1.77,0.22 -3.4,0.52 -3.95,-0.07 z"
             style="fill:#f0b80f;fill-opacity:1"
             id="path5534" />
        </g>
        <g
           style="fill:#f0b80f;fill-opacity:1"
           transform="matrix(1.2292,0,0,1.2292,651.27,85.473)"
           id="g5536">
          <path
             inkscape:connector-curvature="0"
             d="m -197.5,339 c -0.43,-0.39 0.72,-0.25 0.79,1.12 0.25,2 0.03,3.95 -0.35,5.91 l -0.41,0.02 c -0.6,-1.92 -1.03,-3.85 -0.98,-5.88 0.04,-1.32 1.05,-3.2 1.37,-1.46 z"
             style="fill:#f0b80f;fill-opacity:1"
             id="path5538" />
          <path
             inkscape:connector-curvature="0"
             d="m -190.55,338.19 c 1.57,-0.14 1.59,2.55 1.69,4.72 0,1.12 -0.31,2.15 -0.57,3.18 l -0.32,0.01 c -0.31,-0.98 -0.66,-1.95 -0.83,-2.99 -0.22,-1.77 -0.53,-3.41 0.06,-3.95 z"
             style="fill:#f0b80f;fill-opacity:1"
             id="path5540" />
          <path
             inkscape:connector-curvature="0"
             d="m -197.09,338.42 c -0.39,0.43 -0.25,-0.72 1.13,-0.79 2,-0.25 3.95,-0.03 5.9,0.36 l 0.03,0.4 c -1.92,0.6 -3.85,1.03 -5.88,0.98 -1.32,-0.04 -3.2,-1.05 -1.46,-1.37 z"
             style="fill:#f0b80f;fill-opacity:1"
             id="path5542" />
          <path
             inkscape:connector-curvature="0"
             d="m -197.51,346.96 c -0.14,-1.57 2.55,-1.59 4.73,-1.68 1.11,0 2.14,0.3 3.18,0.56 v 0.32 c -0.97,0.32 -1.95,0.66 -2.99,0.84 -1.77,0.22 -3.4,0.52 -3.95,-0.07 z"
             style="fill:#f0b80f;fill-opacity:1"
             id="path5544" />
        </g>
        <path
           inkscape:connector-curvature="0"
           d="m 423.96,502 c -0.54,-0.48 0.88,-0.31 0.97,1.39 0.3,2.46 0.03,4.85 -0.44,7.25 l -0.51,0.03 c -0.72,-2.36 -1.25,-4.73 -1.19,-7.22 0.04,-1.63 1.29,-3.94 1.67,-1.8 z"
           style="fill:#f0b80f;fill-opacity:1"
           id="path5548" />
        <path
           inkscape:connector-curvature="0"
           style="fill:#f0b80f;fill-opacity:1"
           sodipodi:nodetypes="ccccscc"
           d="m 430.08,501.29 c -2.68,0.53 -1.73,-0.88 7.84,-0.97 13.87,-0.3 27.36,-0.04 40.95,0.44 l 0.16,0.5 c -5.07,1.09 -26.7,0.74 -40.77,1.2 -9.55,0.32 -22.22,-1.29 -10.12,-1.68 z"
           id="path5552" />
        <path
           inkscape:connector-curvature="0"
           d="m 478.85,500.29 c 1.94,-0.17 1.96,3.14 2.08,5.81 0,1.37 -0.38,2.63 -0.69,3.91 l -0.4,0.01 c -0.39,-1.21 -0.81,-2.4 -1.03,-3.68 -0.27,-2.17 -0.64,-4.19 0.08,-4.86 z"
           style="fill:#f0b80f;fill-opacity:1"
           id="path5580" />
        <g
           style="fill:#f0b80f;fill-opacity:1"
           transform="matrix(1.2292,0,0,1.2292,728.54,84.039)"
           id="g5586">
          <path
             inkscape:connector-curvature="0"
             d="m -197.5,339 c -0.43,-0.39 0.72,-0.25 0.79,1.12 0.25,2 0.03,3.95 -0.35,5.91 l -0.41,0.02 c -0.6,-1.92 -1.03,-3.85 -0.98,-5.88 0.04,-1.32 1.05,-3.2 1.37,-1.46 z"
             style="fill:#f0b80f;fill-opacity:1"
             id="path5588" />
          <path
             inkscape:connector-curvature="0"
             d="m -190.55,338.19 c 1.57,-0.14 1.59,2.55 1.69,4.72 0,1.12 -0.31,2.15 -0.57,3.18 l -0.32,0.01 c -0.31,-0.98 -0.66,-1.95 -0.83,-2.99 -0.22,-1.77 -0.53,-3.41 0.06,-3.95 z"
             style="fill:#f0b80f;fill-opacity:1"
             id="path5590" />
          <path
             inkscape:connector-curvature="0"
             d="m -197.09,338.42 c -0.39,0.43 -0.25,-0.72 1.13,-0.79 2,-0.25 3.95,-0.03 5.9,0.36 l 0.03,0.4 c -1.92,0.6 -3.85,1.03 -5.88,0.98 -1.32,-0.04 -3.2,-1.05 -1.46,-1.37 z"
             style="fill:#f0b80f;fill-opacity:1"
             id="path5592" />
          <path
             inkscape:connector-curvature="0"
             d="m -197.51,346.96 c -0.14,-1.57 2.55,-1.59 4.73,-1.68 1.11,0 2.14,0.3 3.18,0.56 v 0.32 c -0.97,0.32 -1.95,0.66 -2.99,0.84 -1.77,0.22 -3.4,0.52 -3.95,-0.07 z"
             style="fill:#f0b80f;fill-opacity:1"
             id="path5594" />
        </g>
        <g
           style="fill:#f0b80f;fill-opacity:1"
           transform="matrix(1.2292,0,0,1.2292,743.99,83.015)"
           id="g5596">
          <path
             inkscape:connector-curvature="0"
             d="m -197.5,339 c -0.43,-0.39 0.72,-0.25 0.79,1.12 0.25,2 0.03,3.95 -0.35,5.91 l -0.41,0.02 c -0.6,-1.92 -1.03,-3.85 -0.98,-5.88 0.04,-1.32 1.05,-3.2 1.37,-1.46 z"
             style="fill:#f0b80f;fill-opacity:1"
             id="path5598" />
          <path
             inkscape:connector-curvature="0"
             d="m -190.55,338.19 c 1.57,-0.14 1.59,2.55 1.69,4.72 0,1.12 -0.31,2.15 -0.57,3.18 l -0.32,0.01 c -0.31,-0.98 -0.66,-1.95 -0.83,-2.99 -0.22,-1.77 -0.53,-3.41 0.06,-3.95 z"
             style="fill:#f0b80f;fill-opacity:1"
             id="path5600" />
          <path
             inkscape:connector-curvature="0"
             d="m -197.09,338.42 c -0.39,0.43 -0.25,-0.72 1.13,-0.79 2,-0.25 3.95,-0.03 5.9,0.36 l 0.03,0.4 c -1.92,0.6 -3.85,1.03 -5.88,0.98 -1.32,-0.04 -3.2,-1.05 -1.46,-1.37 z"
             style="fill:#f0b80f;fill-opacity:1"
             id="path5602" />
          <path
             inkscape:connector-curvature="0"
             d="m -197.51,346.96 c -0.14,-1.57 2.55,-1.59 4.73,-1.68 1.11,0 2.14,0.3 3.18,0.56 v 0.32 c -0.97,0.32 -1.95,0.66 -2.99,0.84 -1.77,0.22 -3.4,0.52 -3.95,-0.07 z"
             style="fill:#f0b80f;fill-opacity:1"
             id="path5604" />
        </g>
        <path
           inkscape:connector-curvature="0"
           d="m 473.56,510.32 c 2.7,0.5 1.72,-0.91 -7.84,-0.88 -13.88,-0.12 -27.37,0.32 -40.95,0.97 l -0.15,0.5 c 5.08,1.03 26.71,0.4 40.78,0.68 9.56,0.19 22.2,-1.57 10.1,-1.81 z"
           style="fill:#f0b80f;fill-opacity:1"
           sodipodi:nodetypes="ccccscc"
           id="path5662" />
        <path
           inkscape:connector-curvature="0"
           d="m 515.56,462.78 c 3.55,-0.39 2.13,6.64 1.98,9.29 -1.28,15.73 4.5,30.78 5.14,46.34 l -1.28,0.17 c -7.38,-14.85 -8.34,-30.5 -9.6,-46.11 -0.03,-3.24 -1.11,-8.53 3.26,-10.87 z"
           style="fill:#f0b80f;fill-opacity:1"
           id="path3609" />
        <path
           inkscape:connector-curvature="0"
           d="m 390.27,525.64 c -0.97,-5.29 7.56,-5.57 12.72,-6.05 29.77,-1.75 59.66,-1.7 89.51,-1.11 10.39,0.38 20.8,0.75 31.15,2.19 l 0.01,1.49 c -10.32,1.24 -20.73,1.38 -31.11,1.64 -29.71,0.36 -59.45,0.37 -89.1,2.34 -4.84,0.39 -10.2,0.91 -11.89,-0.59 z"
           style="fill:#f0b80f;fill-opacity:1"
           id="path3611" />
        <g
           style="fill:#f0b80f;fill-opacity:1"
           transform="matrix(1.2292,0,0,1.2292,630.9,55.934)"
           id="g5160">
          <path
             inkscape:connector-curvature="0"
             d="m -197.5,339 c -0.43,-0.39 0.72,-0.25 0.79,1.12 0.25,2 0.03,3.95 -0.35,5.91 l -0.41,0.02 c -0.6,-1.92 -1.03,-3.85 -0.98,-5.88 0.04,-1.32 1.05,-3.2 1.37,-1.46 z"
             style="fill:#f0b80f;fill-opacity:1"
             id="path3613" />
          <path
             inkscape:connector-curvature="0"
             d="m -190.55,338.19 c 1.57,-0.14 1.59,2.55 1.69,4.72 0,1.12 -0.31,2.15 -0.57,3.18 l -0.32,0.01 c -0.31,-0.98 -0.66,-1.95 -0.83,-2.99 -0.22,-1.77 -0.53,-3.41 0.06,-3.95 z"
             style="fill:#f0b80f;fill-opacity:1"
             id="path3615" />
          <path
             inkscape:connector-curvature="0"
             d="m -197.09,338.42 c -0.39,0.43 -0.25,-0.72 1.13,-0.79 2,-0.25 3.95,-0.03 5.9,0.36 l 0.03,0.4 c -1.92,0.6 -3.85,1.03 -5.88,0.98 -1.32,-0.04 -3.2,-1.05 -1.46,-1.37 z"
             style="fill:#f0b80f;fill-opacity:1"
             id="path3626" />
          <path
             inkscape:connector-curvature="0"
             d="m -197.51,346.96 c -0.14,-1.57 2.55,-1.59 4.73,-1.68 1.11,0 2.14,0.3 3.18,0.56 v 0.32 c -0.97,0.32 -1.95,0.66 -2.99,0.84 -1.77,0.22 -3.4,0.52 -3.95,-0.07 z"
             style="fill:#f0b80f;fill-opacity:1"
             id="path3636" />
        </g>
        <g
           style="fill:#f0b80f;fill-opacity:1"
           transform="matrix(1.2292,0,0,1.2292,646.36,55.934)"
           id="g5166">
          <path
             inkscape:connector-curvature="0"
             d="m -197.5,339 c -0.43,-0.39 0.72,-0.25 0.79,1.12 0.25,2 0.03,3.95 -0.35,5.91 l -0.41,0.02 c -0.6,-1.92 -1.03,-3.85 -0.98,-5.88 0.04,-1.32 1.05,-3.2 1.37,-1.46 z"
             style="fill:#f0b80f;fill-opacity:1"
             id="path5168" />
          <path
             inkscape:connector-curvature="0"
             d="m -190.55,338.19 c 1.57,-0.14 1.59,2.55 1.69,4.72 0,1.12 -0.31,2.15 -0.57,3.18 l -0.32,0.01 c -0.31,-0.98 -0.66,-1.95 -0.83,-2.99 -0.22,-1.77 -0.53,-3.41 0.06,-3.95 z"
             style="fill:#f0b80f;fill-opacity:1"
             id="path5170" />
          <path
             inkscape:connector-curvature="0"
             d="m -197.09,338.42 c -0.39,0.43 -0.25,-0.72 1.13,-0.79 2,-0.25 3.95,-0.03 5.9,0.36 l 0.03,0.4 c -1.92,0.6 -3.85,1.03 -5.88,0.98 -1.32,-0.04 -3.2,-1.05 -1.46,-1.37 z"
             style="fill:#f0b80f;fill-opacity:1"
             id="path5172" />
          <path
             inkscape:connector-curvature="0"
             d="m -197.51,346.96 c -0.14,-1.57 2.55,-1.59 4.73,-1.68 1.11,0 2.14,0.3 3.18,0.56 v 0.32 c -0.97,0.32 -1.95,0.66 -2.99,0.84 -1.77,0.22 -3.4,0.52 -3.95,-0.07 z"
             style="fill:#f0b80f;fill-opacity:1"
             id="path5174" />
        </g>
        <g
           style="fill:#f0b80f;fill-opacity:1"
           transform="matrix(1.2292,0,0,1.2292,661.81,55.755)"
           id="g5176">
          <path
             inkscape:connector-curvature="0"
             d="m -197.5,339 c -0.43,-0.39 0.72,-0.25 0.79,1.12 0.25,2 0.03,3.95 -0.35,5.91 l -0.41,0.02 c -0.6,-1.92 -1.03,-3.85 -0.98,-5.88 0.04,-1.32 1.05,-3.2 1.37,-1.46 z"
             style="fill:#f0b80f;fill-opacity:1"
             id="path5178" />
          <path
             inkscape:connector-curvature="0"
             d="m -190.55,338.19 c 1.57,-0.14 1.59,2.55 1.69,4.72 0,1.12 -0.31,2.15 -0.57,3.18 l -0.32,0.01 c -0.31,-0.98 -0.66,-1.95 -0.83,-2.99 -0.22,-1.77 -0.53,-3.41 0.06,-3.95 z"
             style="fill:#f0b80f;fill-opacity:1"
             id="path5180" />
          <path
             inkscape:connector-curvature="0"
             d="m -197.09,338.42 c -0.39,0.43 -0.25,-0.72 1.13,-0.79 2,-0.25 3.95,-0.03 5.9,0.36 l 0.03,0.4 c -1.92,0.6 -3.85,1.03 -5.88,0.98 -1.32,-0.04 -3.2,-1.05 -1.46,-1.37 z"
             style="fill:#f0b80f;fill-opacity:1"
             id="path5182" />
          <path
             inkscape:connector-curvature="0"
             d="m -197.51,346.96 c -0.14,-1.57 2.55,-1.59 4.73,-1.68 1.11,0 2.14,0.3 3.18,0.56 v 0.32 c -0.97,0.32 -1.95,0.66 -2.99,0.84 -1.77,0.22 -3.4,0.52 -3.95,-0.07 z"
             style="fill:#f0b80f;fill-opacity:1"
             id="path5184" />
        </g>
        <g
           style="fill:#f0b80f;fill-opacity:1"
           transform="matrix(1.2292,0,0,1.2292,677.26,55.576)"
           id="g5186">
          <path
             inkscape:connector-curvature="0"
             d="m -197.5,339 c -0.43,-0.39 0.72,-0.25 0.79,1.12 0.25,2 0.03,3.95 -0.35,5.91 l -0.41,0.02 c -0.6,-1.92 -1.03,-3.85 -0.98,-5.88 0.04,-1.32 1.05,-3.2 1.37,-1.46 z"
             style="fill:#f0b80f;fill-opacity:1"
             id="path5188" />
          <path
             inkscape:connector-curvature="0"
             d="m -190.55,338.19 c 1.57,-0.14 1.59,2.55 1.69,4.72 0,1.12 -0.31,2.15 -0.57,3.18 l -0.32,0.01 c -0.31,-0.98 -0.66,-1.95 -0.83,-2.99 -0.22,-1.77 -0.53,-3.41 0.06,-3.95 z"
             style="fill:#f0b80f;fill-opacity:1"
             id="path5190" />
          <path
             inkscape:connector-curvature="0"
             d="m -197.09,338.42 c -0.39,0.43 -0.25,-0.72 1.13,-0.79 2,-0.25 3.95,-0.03 5.9,0.36 l 0.03,0.4 c -1.92,0.6 -3.85,1.03 -5.88,0.98 -1.32,-0.04 -3.2,-1.05 -1.46,-1.37 z"
             style="fill:#f0b80f;fill-opacity:1"
             id="path5192" />
          <path
             inkscape:connector-curvature="0"
             d="m -197.51,346.96 c -0.14,-1.57 2.55,-1.59 4.73,-1.68 1.11,0 2.14,0.3 3.18,0.56 v 0.32 c -0.97,0.32 -1.95,0.66 -2.99,0.84 -1.77,0.22 -3.4,0.52 -3.95,-0.07 z"
             style="fill:#f0b80f;fill-opacity:1"
             id="path5194" />
        </g>
        <g
           style="fill:#f0b80f;fill-opacity:1"
           transform="matrix(1.2292,0,0,1.2292,692.72,55.397)"
           id="g5196">
          <path
             inkscape:connector-curvature="0"
             d="m -197.5,339 c -0.43,-0.39 0.72,-0.25 0.79,1.12 0.25,2 0.03,3.95 -0.35,5.91 l -0.41,0.02 c -0.6,-1.92 -1.03,-3.85 -0.98,-5.88 0.04,-1.32 1.05,-3.2 1.37,-1.46 z"
             style="fill:#f0b80f;fill-opacity:1"
             id="path5198" />
          <path
             inkscape:connector-curvature="0"
             d="m -190.55,338.19 c 1.57,-0.14 1.59,2.55 1.69,4.72 0,1.12 -0.31,2.15 -0.57,3.18 l -0.32,0.01 c -0.31,-0.98 -0.66,-1.95 -0.83,-2.99 -0.22,-1.77 -0.53,-3.41 0.06,-3.95 z"
             style="fill:#f0b80f;fill-opacity:1"
             id="path5200" />
          <path
             inkscape:connector-curvature="0"
             d="m -197.09,338.42 c -0.39,0.43 -0.25,-0.72 1.13,-0.79 2,-0.25 3.95,-0.03 5.9,0.36 l 0.03,0.4 c -1.92,0.6 -3.85,1.03 -5.88,0.98 -1.32,-0.04 -3.2,-1.05 -1.46,-1.37 z"
             style="fill:#f0b80f;fill-opacity:1"
             id="path5202" />
          <path
             inkscape:connector-curvature="0"
             d="m -197.51,346.96 c -0.14,-1.57 2.55,-1.59 4.73,-1.68 1.11,0 2.14,0.3 3.18,0.56 v 0.32 c -0.97,0.32 -1.95,0.66 -2.99,0.84 -1.77,0.22 -3.4,0.52 -3.95,-0.07 z"
             style="fill:#f0b80f;fill-opacity:1"
             id="path5204" />
        </g>
        <g
           style="fill:#f0b80f;fill-opacity:1"
           transform="matrix(1.2292,0,0,1.2292,708.17,55.038)"
           id="g5206">
          <path
             inkscape:connector-curvature="0"
             d="m -197.5,339 c -0.43,-0.39 0.72,-0.25 0.79,1.12 0.25,2 0.03,3.95 -0.35,5.91 l -0.41,0.02 c -0.6,-1.92 -1.03,-3.85 -0.98,-5.88 0.04,-1.32 1.05,-3.2 1.37,-1.46 z"
             style="fill:#f0b80f;fill-opacity:1"
             id="path5208" />
          <path
             inkscape:connector-curvature="0"
             d="m -190.55,338.19 c 1.57,-0.14 1.59,2.55 1.69,4.72 0,1.12 -0.31,2.15 -0.57,3.18 l -0.32,0.01 c -0.31,-0.98 -0.66,-1.95 -0.83,-2.99 -0.22,-1.77 -0.53,-3.41 0.06,-3.95 z"
             style="fill:#f0b80f;fill-opacity:1"
             id="path5210" />
          <path
             inkscape:connector-curvature="0"
             d="m -197.09,338.42 c -0.39,0.43 -0.25,-0.72 1.13,-0.79 2,-0.25 3.95,-0.03 5.9,0.36 l 0.03,0.4 c -1.92,0.6 -3.85,1.03 -5.88,0.98 -1.32,-0.04 -3.2,-1.05 -1.46,-1.37 z"
             style="fill:#f0b80f;fill-opacity:1"
             id="path5212" />
          <path
             inkscape:connector-curvature="0"
             d="m -197.51,346.96 c -0.14,-1.57 2.55,-1.59 4.73,-1.68 1.11,0 2.14,0.3 3.18,0.56 v 0.32 c -0.97,0.32 -1.95,0.66 -2.99,0.84 -1.77,0.22 -3.4,0.52 -3.95,-0.07 z"
             style="fill:#f0b80f;fill-opacity:1"
             id="path5214" />
        </g>
        <g
           style="fill:#f0b80f;fill-opacity:1"
           transform="matrix(1.2292,0,0,1.2292,723.62,54.5)"
           id="g5216">
          <path
             inkscape:connector-curvature="0"
             d="m -197.5,339 c -0.43,-0.39 0.72,-0.25 0.79,1.12 0.25,2 0.03,3.95 -0.35,5.91 l -0.41,0.02 c -0.6,-1.92 -1.03,-3.85 -0.98,-5.88 0.04,-1.32 1.05,-3.2 1.37,-1.46 z"
             style="fill:#f0b80f;fill-opacity:1"
             id="path5218" />
          <path
             inkscape:connector-curvature="0"
             d="m -190.55,338.19 c 1.57,-0.14 1.59,2.55 1.69,4.72 0,1.12 -0.31,2.15 -0.57,3.18 l -0.32,0.01 c -0.31,-0.98 -0.66,-1.95 -0.83,-2.99 -0.22,-1.77 -0.53,-3.41 0.06,-3.95 z"
             style="fill:#f0b80f;fill-opacity:1"
             id="path5220" />
          <path
             inkscape:connector-curvature="0"
             d="m -197.09,338.42 c -0.39,0.43 -0.25,-0.72 1.13,-0.79 2,-0.25 3.95,-0.03 5.9,0.36 l 0.03,0.4 c -1.92,0.6 -3.85,1.03 -5.88,0.98 -1.32,-0.04 -3.2,-1.05 -1.46,-1.37 z"
             style="fill:#f0b80f;fill-opacity:1"
             id="path5222" />
          <path
             inkscape:connector-curvature="0"
             d="m -197.51,346.96 c -0.14,-1.57 2.55,-1.59 4.73,-1.68 1.11,0 2.14,0.3 3.18,0.56 v 0.32 c -0.97,0.32 -1.95,0.66 -2.99,0.84 -1.77,0.22 -3.4,0.52 -3.95,-0.07 z"
             style="fill:#f0b80f;fill-opacity:1"
             id="path5224" />
        </g>
        <g
           style="fill:#f0b80f;fill-opacity:1"
           transform="matrix(1.2292,0,0,1.2292,739.07,53.476)"
           id="g5226">
          <path
             inkscape:connector-curvature="0"
             d="m -197.5,339 c -0.43,-0.39 0.72,-0.25 0.79,1.12 0.25,2 0.03,3.95 -0.35,5.91 l -0.41,0.02 c -0.6,-1.92 -1.03,-3.85 -0.98,-5.88 0.04,-1.32 1.05,-3.2 1.37,-1.46 z"
             style="fill:#f0b80f;fill-opacity:1"
             id="path5228" />
          <path
             inkscape:connector-curvature="0"
             d="m -190.55,338.19 c 1.57,-0.14 1.59,2.55 1.69,4.72 0,1.12 -0.31,2.15 -0.57,3.18 l -0.32,0.01 c -0.31,-0.98 -0.66,-1.95 -0.83,-2.99 -0.22,-1.77 -0.53,-3.41 0.06,-3.95 z"
             style="fill:#f0b80f;fill-opacity:1"
             id="path5230" />
          <path
             inkscape:connector-curvature="0"
             d="m -197.09,338.42 c -0.39,0.43 -0.25,-0.72 1.13,-0.79 2,-0.25 3.95,-0.03 5.9,0.36 l 0.03,0.4 c -1.92,0.6 -3.85,1.03 -5.88,0.98 -1.32,-0.04 -3.2,-1.05 -1.46,-1.37 z"
             style="fill:#f0b80f;fill-opacity:1"
             id="path5232" />
          <path
             inkscape:connector-curvature="0"
             d="m -197.51,346.96 c -0.14,-1.57 2.55,-1.59 4.73,-1.68 1.11,0 2.14,0.3 3.18,0.56 v 0.32 c -0.97,0.32 -1.95,0.66 -2.99,0.84 -1.77,0.22 -3.4,0.52 -3.95,-0.07 z"
             style="fill:#f0b80f;fill-opacity:1"
             id="path5234" />
        </g>
        <g
           style="fill:#f0b80f;fill-opacity:1"
           transform="matrix(1.2292,0,0,1.2292,633.36,70.685)"
           id="g5280">
          <path
             inkscape:connector-curvature="0"
             d="m -197.5,339 c -0.43,-0.39 0.72,-0.25 0.79,1.12 0.25,2 0.03,3.95 -0.35,5.91 l -0.41,0.02 c -0.6,-1.92 -1.03,-3.85 -0.98,-5.88 0.04,-1.32 1.05,-3.2 1.37,-1.46 z"
             style="fill:#f0b80f;fill-opacity:1"
             id="path5282" />
          <path
             inkscape:connector-curvature="0"
             d="m -190.55,338.19 c 1.57,-0.14 1.59,2.55 1.69,4.72 0,1.12 -0.31,2.15 -0.57,3.18 l -0.32,0.01 c -0.31,-0.98 -0.66,-1.95 -0.83,-2.99 -0.22,-1.77 -0.53,-3.41 0.06,-3.95 z"
             style="fill:#f0b80f;fill-opacity:1"
             id="path5284" />
          <path
             inkscape:connector-curvature="0"
             d="m -197.09,338.42 c -0.39,0.43 -0.25,-0.72 1.13,-0.79 2,-0.25 3.95,-0.03 5.9,0.36 l 0.03,0.4 c -1.92,0.6 -3.85,1.03 -5.88,0.98 -1.32,-0.04 -3.2,-1.05 -1.46,-1.37 z"
             style="fill:#f0b80f;fill-opacity:1"
             id="path5286" />
          <path
             inkscape:connector-curvature="0"
             d="m -197.51,346.96 c -0.14,-1.57 2.55,-1.59 4.73,-1.68 1.11,0 2.14,0.3 3.18,0.56 v 0.32 c -0.97,0.32 -1.95,0.66 -2.99,0.84 -1.77,0.22 -3.4,0.52 -3.95,-0.07 z"
             style="fill:#f0b80f;fill-opacity:1"
             id="path5288" />
        </g>
        <g
           style="fill:#f0b80f;fill-opacity:1"
           transform="matrix(1.2292,0,0,1.2292,648.81,70.685)"
           id="g5290">
          <path
             inkscape:connector-curvature="0"
             d="m -197.5,339 c -0.43,-0.39 0.72,-0.25 0.79,1.12 0.25,2 0.03,3.95 -0.35,5.91 l -0.41,0.02 c -0.6,-1.92 -1.03,-3.85 -0.98,-5.88 0.04,-1.32 1.05,-3.2 1.37,-1.46 z"
             style="fill:#f0b80f;fill-opacity:1"
             id="path5292" />
          <path
             inkscape:connector-curvature="0"
             d="m -190.55,338.19 c 1.57,-0.14 1.59,2.55 1.69,4.72 0,1.12 -0.31,2.15 -0.57,3.18 l -0.32,0.01 c -0.31,-0.98 -0.66,-1.95 -0.83,-2.99 -0.22,-1.77 -0.53,-3.41 0.06,-3.95 z"
             style="fill:#f0b80f;fill-opacity:1"
             id="path5294" />
          <path
             inkscape:connector-curvature="0"
             d="m -197.09,338.42 c -0.39,0.43 -0.25,-0.72 1.13,-0.79 2,-0.25 3.95,-0.03 5.9,0.36 l 0.03,0.4 c -1.92,0.6 -3.85,1.03 -5.88,0.98 -1.32,-0.04 -3.2,-1.05 -1.46,-1.37 z"
             style="fill:#f0b80f;fill-opacity:1"
             id="path5296" />
          <path
             inkscape:connector-curvature="0"
             d="m -197.51,346.96 c -0.14,-1.57 2.55,-1.59 4.73,-1.68 1.11,0 2.14,0.3 3.18,0.56 v 0.32 c -0.97,0.32 -1.95,0.66 -2.99,0.84 -1.77,0.22 -3.4,0.52 -3.95,-0.07 z"
             style="fill:#f0b80f;fill-opacity:1"
             id="path5298" />
        </g>
        <g
           style="fill:#f0b80f;fill-opacity:1"
           transform="matrix(1.2292,0,0,1.2292,664.27,70.506)"
           id="g5300">
          <path
             inkscape:connector-curvature="0"
             d="m -197.5,339 c -0.43,-0.39 0.72,-0.25 0.79,1.12 0.25,2 0.03,3.95 -0.35,5.91 l -0.41,0.02 c -0.6,-1.92 -1.03,-3.85 -0.98,-5.88 0.04,-1.32 1.05,-3.2 1.37,-1.46 z"
             style="fill:#f0b80f;fill-opacity:1"
             id="path5302" />
          <path
             inkscape:connector-curvature="0"
             d="m -190.55,338.19 c 1.57,-0.14 1.59,2.55 1.69,4.72 0,1.12 -0.31,2.15 -0.57,3.18 l -0.32,0.01 c -0.31,-0.98 -0.66,-1.95 -0.83,-2.99 -0.22,-1.77 -0.53,-3.41 0.06,-3.95 z"
             style="fill:#f0b80f;fill-opacity:1"
             id="path5304" />
          <path
             inkscape:connector-curvature="0"
             d="m -197.09,338.42 c -0.39,0.43 -0.25,-0.72 1.13,-0.79 2,-0.25 3.95,-0.03 5.9,0.36 l 0.03,0.4 c -1.92,0.6 -3.85,1.03 -5.88,0.98 -1.32,-0.04 -3.2,-1.05 -1.46,-1.37 z"
             style="fill:#f0b80f;fill-opacity:1"
             id="path5306" />
          <path
             inkscape:connector-curvature="0"
             d="m -197.51,346.96 c -0.14,-1.57 2.55,-1.59 4.73,-1.68 1.11,0 2.14,0.3 3.18,0.56 v 0.32 c -0.97,0.32 -1.95,0.66 -2.99,0.84 -1.77,0.22 -3.4,0.52 -3.95,-0.07 z"
             style="fill:#f0b80f;fill-opacity:1"
             id="path5308" />
        </g>
        <g
           style="fill:#f0b80f;fill-opacity:1"
           transform="matrix(1.2292,0,0,1.2292,679.72,70.327)"
           id="g5310">
          <path
             inkscape:connector-curvature="0"
             d="m -197.5,339 c -0.43,-0.39 0.72,-0.25 0.79,1.12 0.25,2 0.03,3.95 -0.35,5.91 l -0.41,0.02 c -0.6,-1.92 -1.03,-3.85 -0.98,-5.88 0.04,-1.32 1.05,-3.2 1.37,-1.46 z"
             style="fill:#f0b80f;fill-opacity:1"
             id="path5312" />
          <path
             inkscape:connector-curvature="0"
             d="m -190.55,338.19 c 1.57,-0.14 1.59,2.55 1.69,4.72 0,1.12 -0.31,2.15 -0.57,3.18 l -0.32,0.01 c -0.31,-0.98 -0.66,-1.95 -0.83,-2.99 -0.22,-1.77 -0.53,-3.41 0.06,-3.95 z"
             style="fill:#f0b80f;fill-opacity:1"
             id="path5314" />
          <path
             inkscape:connector-curvature="0"
             d="m -197.09,338.42 c -0.39,0.43 -0.25,-0.72 1.13,-0.79 2,-0.25 3.95,-0.03 5.9,0.36 l 0.03,0.4 c -1.92,0.6 -3.85,1.03 -5.88,0.98 -1.32,-0.04 -3.2,-1.05 -1.46,-1.37 z"
             style="fill:#f0b80f;fill-opacity:1"
             id="path5316" />
          <path
             inkscape:connector-curvature="0"
             d="m -197.51,346.96 c -0.14,-1.57 2.55,-1.59 4.73,-1.68 1.11,0 2.14,0.3 3.18,0.56 v 0.32 c -0.97,0.32 -1.95,0.66 -2.99,0.84 -1.77,0.22 -3.4,0.52 -3.95,-0.07 z"
             style="fill:#f0b80f;fill-opacity:1"
             id="path5318" />
        </g>
        <g
           style="fill:#f0b80f;fill-opacity:1"
           transform="matrix(1.2292,0,0,1.2292,695.17,70.147)"
           id="g5320">
          <path
             inkscape:connector-curvature="0"
             d="m -197.5,339 c -0.43,-0.39 0.72,-0.25 0.79,1.12 0.25,2 0.03,3.95 -0.35,5.91 l -0.41,0.02 c -0.6,-1.92 -1.03,-3.85 -0.98,-5.88 0.04,-1.32 1.05,-3.2 1.37,-1.46 z"
             style="fill:#f0b80f;fill-opacity:1"
             id="path5322" />
          <path
             inkscape:connector-curvature="0"
             d="m -190.55,338.19 c 1.57,-0.14 1.59,2.55 1.69,4.72 0,1.12 -0.31,2.15 -0.57,3.18 l -0.32,0.01 c -0.31,-0.98 -0.66,-1.95 -0.83,-2.99 -0.22,-1.77 -0.53,-3.41 0.06,-3.95 z"
             style="fill:#f0b80f;fill-opacity:1"
             id="path5324" />
          <path
             inkscape:connector-curvature="0"
             d="m -197.09,338.42 c -0.39,0.43 -0.25,-0.72 1.13,-0.79 2,-0.25 3.95,-0.03 5.9,0.36 l 0.03,0.4 c -1.92,0.6 -3.85,1.03 -5.88,0.98 -1.32,-0.04 -3.2,-1.05 -1.46,-1.37 z"
             style="fill:#f0b80f;fill-opacity:1"
             id="path5326" />
          <path
             inkscape:connector-curvature="0"
             d="m -197.51,346.96 c -0.14,-1.57 2.55,-1.59 4.73,-1.68 1.11,0 2.14,0.3 3.18,0.56 v 0.32 c -0.97,0.32 -1.95,0.66 -2.99,0.84 -1.77,0.22 -3.4,0.52 -3.95,-0.07 z"
             style="fill:#f0b80f;fill-opacity:1"
             id="path5328" />
        </g>
        <g
           style="fill:#f0b80f;fill-opacity:1"
           transform="matrix(1.2292,0,0,1.2292,710.63,69.789)"
           id="g5330">
          <path
             inkscape:connector-curvature="0"
             d="m -197.5,339 c -0.43,-0.39 0.72,-0.25 0.79,1.12 0.25,2 0.03,3.95 -0.35,5.91 l -0.41,0.02 c -0.6,-1.92 -1.03,-3.85 -0.98,-5.88 0.04,-1.32 1.05,-3.2 1.37,-1.46 z"
             style="fill:#f0b80f;fill-opacity:1"
             id="path5332" />
          <path
             inkscape:connector-curvature="0"
             d="m -190.55,338.19 c 1.57,-0.14 1.59,2.55 1.69,4.72 0,1.12 -0.31,2.15 -0.57,3.18 l -0.32,0.01 c -0.31,-0.98 -0.66,-1.95 -0.83,-2.99 -0.22,-1.77 -0.53,-3.41 0.06,-3.95 z"
             style="fill:#f0b80f;fill-opacity:1"
             id="path5334" />
          <path
             inkscape:connector-curvature="0"
             d="m -197.09,338.42 c -0.39,0.43 -0.25,-0.72 1.13,-0.79 2,-0.25 3.95,-0.03 5.9,0.36 l 0.03,0.4 c -1.92,0.6 -3.85,1.03 -5.88,0.98 -1.32,-0.04 -3.2,-1.05 -1.46,-1.37 z"
             style="fill:#f0b80f;fill-opacity:1"
             id="path5336" />
          <path
             inkscape:connector-curvature="0"
             d="m -197.51,346.96 c -0.14,-1.57 2.55,-1.59 4.73,-1.68 1.11,0 2.14,0.3 3.18,0.56 v 0.32 c -0.97,0.32 -1.95,0.66 -2.99,0.84 -1.77,0.22 -3.4,0.52 -3.95,-0.07 z"
             style="fill:#f0b80f;fill-opacity:1"
             id="path5338" />
        </g>
        <g
           style="fill:#f0b80f;fill-opacity:1"
           transform="matrix(1.2292,0,0,1.2292,726.08,69.251)"
           id="g5340">
          <path
             inkscape:connector-curvature="0"
             d="m -197.5,339 c -0.43,-0.39 0.72,-0.25 0.79,1.12 0.25,2 0.03,3.95 -0.35,5.91 l -0.41,0.02 c -0.6,-1.92 -1.03,-3.85 -0.98,-5.88 0.04,-1.32 1.05,-3.2 1.37,-1.46 z"
             style="fill:#f0b80f;fill-opacity:1"
             id="path5342" />
          <path
             inkscape:connector-curvature="0"
             d="m -190.55,338.19 c 1.57,-0.14 1.59,2.55 1.69,4.72 0,1.12 -0.31,2.15 -0.57,3.18 l -0.32,0.01 c -0.31,-0.98 -0.66,-1.95 -0.83,-2.99 -0.22,-1.77 -0.53,-3.41 0.06,-3.95 z"
             style="fill:#f0b80f;fill-opacity:1"
             id="path5344" />
          <path
             inkscape:connector-curvature="0"
             d="m -197.09,338.42 c -0.39,0.43 -0.25,-0.72 1.13,-0.79 2,-0.25 3.95,-0.03 5.9,0.36 l 0.03,0.4 c -1.92,0.6 -3.85,1.03 -5.88,0.98 -1.32,-0.04 -3.2,-1.05 -1.46,-1.37 z"
             style="fill:#f0b80f;fill-opacity:1"
             id="path5346" />
          <path
             inkscape:connector-curvature="0"
             d="m -197.51,346.96 c -0.14,-1.57 2.55,-1.59 4.73,-1.68 1.11,0 2.14,0.3 3.18,0.56 v 0.32 c -0.97,0.32 -1.95,0.66 -2.99,0.84 -1.77,0.22 -3.4,0.52 -3.95,-0.07 z"
             style="fill:#f0b80f;fill-opacity:1"
             id="path5348" />
        </g>
        <g
           style="fill:#f0b80f;fill-opacity:1"
           transform="matrix(1.2292,0,0,1.2292,741.53,68.227)"
           id="g5350">
          <path
             inkscape:connector-curvature="0"
             d="m -197.5,339 c -0.43,-0.39 0.72,-0.25 0.79,1.12 0.25,2 0.03,3.95 -0.35,5.91 l -0.41,0.02 c -0.6,-1.92 -1.03,-3.85 -0.98,-5.88 0.04,-1.32 1.05,-3.2 1.37,-1.46 z"
             style="fill:#f0b80f;fill-opacity:1"
             id="path5352" />
          <path
             inkscape:connector-curvature="0"
             d="m -190.55,338.19 c 1.57,-0.14 1.59,2.55 1.69,4.72 0,1.12 -0.31,2.15 -0.57,3.18 l -0.32,0.01 c -0.31,-0.98 -0.66,-1.95 -0.83,-2.99 -0.22,-1.77 -0.53,-3.41 0.06,-3.95 z"
             style="fill:#f0b80f;fill-opacity:1"
             id="path5354" />
          <path
             inkscape:connector-curvature="0"
             d="m -197.09,338.42 c -0.39,0.43 -0.25,-0.72 1.13,-0.79 2,-0.25 3.95,-0.03 5.9,0.36 l 0.03,0.4 c -1.92,0.6 -3.85,1.03 -5.88,0.98 -1.32,-0.04 -3.2,-1.05 -1.46,-1.37 z"
             style="fill:#f0b80f;fill-opacity:1"
             id="path5356" />
          <path
             inkscape:connector-curvature="0"
             d="m -197.51,346.96 c -0.14,-1.57 2.55,-1.59 4.73,-1.68 1.11,0 2.14,0.3 3.18,0.56 v 0.32 c -0.97,0.32 -1.95,0.66 -2.99,0.84 -1.77,0.22 -3.4,0.52 -3.95,-0.07 z"
             style="fill:#f0b80f;fill-opacity:1"
             id="path5358" />
        </g>
      </g>
      <path
         sodipodi:nodetypes="csssccssscc"
         inkscape:connector-curvature="0"
         id="path4630"
         d="m 515.91151,525.25421 c -26.40723,57.19364 -79.52238,61.31629 -113.78411,58.03473 -35.23863,-3.37512 -77.64452,-31.95012 -67.9598,-103.45322 10.37904,-76.62942 71.32706,-99.16313 113.78412,-99.2478 33.43343,-0.0666 52.03778,20.60654 63.29968,44.15686 0.85058,2.88429 -0.64883,3.30244 -2.05949,1.18947 -11.2619,-23.55033 -29.36013,-39.94599 -62.79356,-39.87929 -42.45706,0.0847 -91.53861,35.75406 -100.19216,96.30401 -9.25821,64.78085 24.566,92.08781 59.80462,95.46293 34.26173,3.28155 80.38674,-2.52325 106.79397,-51.72661 1.64808,-1.46614 2.53972,-1.57413 3.10673,-0.84108 z"
         style="fill:#f0b80f;fill-opacity:1;stroke:none;stroke-width:1px;stroke-linecap:butt;stroke-linejoin:round;stroke-opacity:1" />
    </g>
  </g>
  <metadata
     id="metadata113">
    <rdf:RDF>
      <cc:Work>
        <dc:format>image/svg+xml</dc:format>
        <dc:type
           rdf:resource="http://purl.org/dc/dcmitype/StillImage" />
        <cc:license
           rdf:resource="http://creativecommons.org/publicdomain/zero/1.0/" />
        <dc:publisher>
          <cc:Agent
             rdf:about="http://openclipart.org/">
            <dc:title>Openclipart</dc:title>
          </cc:Agent>
        </dc:publisher>
        <dc:title></dc:title>
        <dc:date>2008-03-31T23:17:04</dc:date>
        <dc:description>a very minimalist keyboard</dc:description>
        <dc:source>https://openclipart.org/detail/16079/minimalist-keyboard-by-noxin</dc:source>
        <dc:creator>
          <cc:Agent>
            <dc:title>noxin</dc:title>
          </cc:Agent>
        </dc:creator>
        <dc:subject>
          <rdf:Bag>
            <rdf:li>electronics</rdf:li>
            <rdf:li>hardware</rdf:li>
            <rdf:li>minimalist keyboard</rdf:li>
          </rdf:Bag>
        </dc:subject>
      </cc:Work>
      <cc:License
         rdf:about="http://creativecommons.org/publicdomain/zero/1.0/">
        <cc:permits
           rdf:resource="http://creativecommons.org/ns#Reproduction" />
        <cc:permits
           rdf:resource="http://creativecommons.org/ns#Distribution" />
        <cc:permits
           rdf:resource="http://creativecommons.org/ns#DerivativeWorks" />
      </cc:License>
    </rdf:RDF>
  </metadata>
</svg>
